# xmcd
#
# Track frame offsets:
#	150
#	14067
#	28871
#	56101
#	78028
#	95757
#	115677
#	131912
#	153270
#	167493
#	184236
#	203260
#	217875
#	236897
#	251876
#	268207
#	284874
#	300796
#	315303
#
# Disc length: 4431 seconds
#
# Revision: 0
# Processed by: cddbd v1.4PL0 Copyright (c) Steve Scherf et al.
# Submitted via: dBpowerAMP V4.0
#
DISCID=0c114d13
DTITLE=五轮真弓 - 雨中两人
DYEAR=2002
DGENRE=
TTITLE0=雨中两人
TTITLE1=知己
TTITLE2=L'ecrivain
TTITLE3=变成小鸟吧
TTITLE4=恋爱挚友
TTITLE5=手表
TTITLE6=你突然
TTITLE7=避雨
TTITLE8=拥抱吧
TTITLE9=不要哭吧
TTITLE10=恋人啊
TTITLE11=海鸥
TTITLE12=一叶舟
TTITLE13=再见不许说
TTITLE14=配钥匙
TTITLE15=灰盂
TTITLE16=小丑
TTITLE17=约誓
TTITLE18=重演
EXTD=
EXTT0=
EXTT1=
EXTT2=
EXTT3=
EXTT4=
EXTT5=
EXTT6=
EXTT7=
EXTT8=
EXTT9=
EXTT10=
EXTT11=
EXTT12=
EXTT13=
EXTT14=
EXTT15=
EXTT16=
EXTT17=
EXTT18=
PLAYORDER=
